<?xml version="1.0" standalone="no"?>
<!DOCTYPE svg PUBLIC "-//W3C//DTD SVG 20010904//EN"
 "http://www.w3.org/TR/2001/REC-SVG-20010904/DTD/svg10.dtd">
<svg version="1.0" xmlns="http://www.w3.org/2000/svg"
 width="2048.000000pt" height="2048.000000pt" viewBox="0 0 2048.000000 2048.000000"
 preserveAspectRatio="xMidYMid meet">

<g transform="translate(0.000000,2048.000000) scale(0.100000,-0.100000)"
fill="#000000" stroke="none">
<path d="M10139 18075 c-67 -21 -138 -73 -176 -129 -59 -86 -63 -116 -63 -457
l0 -308 -442 -3 c-505 -3 -488 -1 -588 -94 -75 -70 -104 -138 -105 -244 0 -73
4 -93 28 -142 36 -74 96 -134 165 -166 l57 -27 443 -3 442 -3 -2 -590 -3 -590
-102 -34 c-476 -160 -884 -561 -1178 -1160 -127 -258 -176 -416 -206 -660 -16
-129 -14 -467 3 -617 8 -65 13 -118 12 -118 -1 0 -63 38 -136 84 -643 405
-1325 651 -2028 731 -74 9 -234 19 -355 22 -1305 35 -2437 -564 -3168 -1674
-174 -264 -313 -652 -373 -1038 -24 -158 -29 -472 -10 -650 74 -687 401 -1354
987 -2010 122 -137 397 -410 542 -537 348 -308 855 -675 1272 -922 83 -49 160
-95 173 -103 l22 -13 0 -1525 0 -1524 21 -57 c32 -85 90 -137 274 -246 1135
-673 2499 -1062 4032 -1148 235 -13 892 -13 1126 0 1570 89 2984 500 4104
1192 125 77 173 126 203 205 20 53 20 76 20 1578 l0 1525 23 13 c12 8 90 54
172 103 417 247 930 619 1280 928 145 128 420 402 538 536 570 644 882 1266
978 1950 21 146 18 556 -5 700 -47 305 -146 622 -271 870 -104 206 -349 531
-585 774 -575 592 -1293 944 -2145 1052 -175 23 -657 26 -840 6 -749 -82
-1467 -340 -2134 -769 -46 -30 -85 -53 -86 -51 -1 2 1 30 6 63 31 219 28 578
-6 781 -46 270 -184 589 -380 884 -285 428 -607 697 -986 824 l-104 35 -3 590
-2 590 442 3 443 3 57 27 c69 32 129 92 165 166 24 49 28 69 28 142 -1 106
-30 174 -105 244 -100 93 -83 91 -587 94 l-442 3 -3 327 -3 327 -26 56 c-55
117 -164 190 -293 196 -44 2 -89 -3 -117 -12z m201 -3405 c204 -33 370 -129
556 -323 157 -163 294 -371 398 -604 79 -176 106 -322 106 -566 0 -252 -40
-530 -124 -860 -80 -316 -76 -305 -185 -426 -301 -332 -547 -672 -746 -1031
-32 -58 -69 -125 -83 -149 l-24 -43 -57 108 c-194 369 -473 763 -784 1107
-119 131 -112 116 -193 434 -138 542 -163 1010 -69 1297 84 258 291 584 494
778 162 156 315 242 486 273 88 17 143 18 225 5z m-4145 -1805 c1433 -168
2780 -1169 3470 -2580 86 -176 130 -277 196 -454 l39 -104 0 -768 0 -767 -72
-6 c-40 -3 -170 -10 -288 -16 -879 -46 -1778 -202 -2582 -449 -396 -122 -712
-244 -1092 -422 -92 -43 -173 -79 -178 -79 -16 0 -284 161 -463 278 -993 649
-1708 1399 -2014 2113 -253 592 -251 1170 5 1741 111 245 421 626 704 864 324
273 646 440 1105 574 116 34 426 83 590 94 114 7 450 -4 580 -19z m8860 0
c661 -84 1230 -360 1690 -821 222 -222 441 -518 528 -714 414 -935 130 -1912
-838 -2886 -326 -328 -697 -627 -1137 -918 -195 -129 -487 -306 -504 -306 -6
0 -74 30 -150 66 -160 76 -359 162 -524 227 -926 364 -2068 600 -3180 657
-118 6 -248 13 -287 16 l-73 6 0 767 0 768 39 104 c356 947 966 1737 1776
2299 351 243 720 429 1116 561 332 111 602 164 984 193 99 8 444 -4 560 -19z
m-4140 -5375 c1312 -85 2457 -357 3410 -809 l125 -60 0 -420 0 -420 -67 30
c-38 17 -151 64 -253 104 -2322 917 -5503 910 -7820 -16 -113 -45 -222 -90
-242 -100 l-38 -19 0 420 0 421 125 59 c968 458 2178 743 3435 810 113 6 234
12 270 14 123 7 895 -3 1055 -14z m-315 -1580 c1413 -50 2694 -331 3703 -813
l147 -70 0 -419 0 -418 -37 16 c-1659 729 -3882 979 -5953 668 -558 -84 -1129
-217 -1630 -379 -263 -86 -456 -159 -767 -291 l-33 -14 0 418 0 419 133 63
c966 461 2180 743 3482 810 389 20 602 22 955 10z m205 -1600 c1014 -55 1914
-219 2735 -498 182 -62 489 -179 503 -192 21 -19 -555 -261 -898 -376 -685
-229 -1367 -364 -2189 -431 -301 -25 -1133 -25 -1432 0 -972 80 -1828 271
-2594 579 -232 94 -503 219 -493 228 5 4 80 35 168 70 857 334 1880 548 2910
610 99 6 203 12 230 13 133 8 892 6 1060 -3z"/>
</g>
</svg>
